<?xml version="1.0" encoding="utf-8"?>
<!-- Generator: Adobe Illustrator 27.5.0, SVG Export Plug-In . SVG Version: 6.00 Build 0)  -->
<svg version="1.1" id="Layer_1" xmlns="http://www.w3.org/2000/svg" xmlns:xlink="http://www.w3.org/1999/xlink" x="0px" y="0px"
	 viewBox="0 0 1200 1200" style="enable-background:new 0 0 1200 1200;" xml:space="preserve">
<rect x="-0.496" y="-2" style="fill:#181619;" width="1209" height="1209"/>
<g>
	<path style="fill:#808184;" d="M298.909,861.598v-97.061h66.487v18.348h-44.324v19.048h39.352v17.927h-39.352v23.39h47.592v18.348
		H298.909z"/>
	<path style="fill:#808184;" d="M506.607,842.83v18.768h-65.776v-97.061h22.163v78.293H506.607z"/>
	<path style="fill:#808184;" d="M576.644,764.537h22.163v97.061h-22.163V764.537z"/>
	<path style="fill:#808184;" d="M750.389,764.537v18.628h-29.691v78.433h-22.162v-78.433h-29.692v-18.628H750.389z"/>
	<path style="fill:#808184;" d="M820.427,861.598v-97.061h66.486v18.348H842.59v19.048h39.352v17.927H842.59v23.39h47.591v18.348
		H820.427z"/>
</g>
<g>
	<path style="fill:#808184;" d="M471.37,929.358c0.028,1.781-0.441,3.303-1.406,4.568c-0.635,0.856-1.531,1.461-2.689,1.815
		c-0.621,0.19-1.345,0.285-2.172,0.285c-1.531,0-2.8-0.374-3.806-1.122c-0.842-0.611-1.507-1.443-1.997-2.497
		c-0.489-1.054-0.775-2.261-0.858-3.62l3.723-0.266c0.165,1.491,0.565,2.569,1.2,3.239c0.469,0.505,1.007,0.744,1.613,0.717
		c0.855-0.027,1.538-0.443,2.048-1.246c0.261-0.394,0.393-0.959,0.393-1.694c0-1.061-0.489-2.115-1.469-3.163
		c-0.772-0.722-1.931-1.804-3.475-3.245c-1.296-1.238-2.213-2.348-2.751-3.328c-0.579-1.102-0.868-2.299-0.868-3.592
		c0-2.327,0.793-4.089,2.378-5.286c0.979-0.722,2.193-1.082,3.641-1.082c1.393,0,2.586,0.305,3.579,0.918
		c0.772,0.475,1.396,1.141,1.872,1.998c0.475,0.856,0.762,1.842,0.858,2.956l-3.744,0.673c-0.111-1.046-0.413-1.862-0.91-2.447
		c-0.359-0.421-0.876-0.632-1.552-0.632c-0.717,0-1.262,0.313-1.634,0.937c-0.304,0.503-0.455,1.129-0.455,1.877
		c0,1.169,0.51,2.358,1.53,3.568c0.386,0.462,0.965,1.007,1.738,1.631c0.911,0.748,1.51,1.272,1.8,1.57
		c0.965,0.952,1.71,1.891,2.234,2.814c0.248,0.435,0.448,0.837,0.599,1.204C471.163,927.822,471.357,928.638,471.37,929.358z"/>
	<path style="fill:#808184;" d="M504.779,914.042h-4.158v-3.874h12.204v3.874h-4.137v21.678h-3.91V914.042z"/>
	<path style="fill:#808184;" d="M548.696,936.005c-1.725,0-3.186-0.59-4.385-1.774c-1.2-1.182-1.8-2.617-1.8-4.302v-19.761h3.827
		v19.72c0,0.612,0.221,1.132,0.662,1.56c0.441,0.428,0.972,0.642,1.593,0.642c0.62,0,1.147-0.214,1.582-0.642
		c0.435-0.428,0.651-0.947,0.651-1.56v-19.72h4.076v19.761c0,1.712-0.607,3.154-1.82,4.323
		C551.868,935.421,550.406,936.005,548.696,936.005z"/>
	<path style="fill:#808184;" d="M597.225,929.603c0,1.685-0.6,3.126-1.799,4.323c-1.2,1.197-2.648,1.795-4.344,1.795h-6.144v-25.573
		h6.144c1.71,0,3.161,0.598,4.355,1.795c1.192,1.197,1.789,2.631,1.789,4.303V929.603z M588.848,931.907h2.358
		c0.62,0,1.144-0.221,1.572-0.662c0.427-0.441,0.641-0.962,0.641-1.56v-13.378c0-0.611-0.217-1.135-0.651-1.57
		c-0.434-0.435-0.955-0.652-1.561-0.652h-2.358V931.907z"/>
	<path style="fill:#808184;" d="M631.13,935.72h-3.909v-25.552h3.909V935.72z"/>
	<path style="fill:#808184;" d="M667.332,909.842c1.724,0,3.188,0.598,4.395,1.795c1.207,1.195,1.811,2.637,1.811,4.323v13.95
		c0,1.699-0.608,3.143-1.821,4.333c-1.213,1.19-2.676,1.784-4.385,1.784c-1.725,0-3.186-0.598-4.386-1.795
		c-1.2-1.195-1.799-2.637-1.799-4.323v-13.95c0-1.699,0.607-3.143,1.82-4.333C664.18,910.436,665.635,909.842,667.332,909.842z
		 M669.462,915.878c0-0.612-0.217-1.132-0.651-1.56c-0.435-0.428-0.962-0.642-1.582-0.642c-0.621,0-1.153,0.214-1.594,0.642
		c-0.441,0.428-0.661,0.947-0.661,1.56v13.989c0,0.612,0.22,1.132,0.661,1.56c0.441,0.428,0.973,0.643,1.594,0.643
		c0.62,0,1.147-0.216,1.582-0.643c0.434-0.428,0.651-0.947,0.651-1.56V915.878z"/>
	<path style="fill:#808184;" d="M716.234,929.358c0.028,1.781-0.441,3.303-1.406,4.568c-0.635,0.856-1.53,1.461-2.689,1.815
		c-0.621,0.19-1.344,0.285-2.172,0.285c-1.53,0-2.8-0.374-3.806-1.122c-0.841-0.611-1.507-1.443-1.995-2.497
		c-0.49-1.054-0.776-2.261-0.859-3.62l3.723-0.266c0.165,1.491,0.565,2.569,1.2,3.239c0.468,0.505,1.007,0.744,1.613,0.717
		c0.854-0.027,1.538-0.443,2.049-1.246c0.261-0.394,0.393-0.959,0.393-1.694c0-1.061-0.49-2.115-1.468-3.163
		c-0.772-0.722-1.93-1.804-3.475-3.245c-1.296-1.238-2.214-2.348-2.751-3.328c-0.579-1.102-0.869-2.299-0.869-3.592
		c0-2.327,0.794-4.089,2.379-5.286c0.98-0.722,2.193-1.082,3.641-1.082c1.393,0,2.586,0.305,3.579,0.918
		c0.772,0.475,1.396,1.141,1.871,1.998c0.477,0.856,0.763,1.842,0.859,2.956l-3.744,0.673c-0.111-1.046-0.413-1.862-0.911-2.447
		c-0.359-0.421-0.875-0.632-1.551-0.632c-0.717,0-1.262,0.313-1.634,0.937c-0.304,0.503-0.454,1.129-0.454,1.877
		c0,1.169,0.509,2.358,1.53,3.568c0.385,0.462,0.965,1.007,1.737,1.631c0.911,0.748,1.51,1.272,1.8,1.57
		c0.964,0.952,1.709,1.891,2.233,2.814c0.248,0.435,0.449,0.837,0.601,1.204C716.027,927.822,716.22,928.638,716.234,929.358z"/>
</g>
<g>
	<linearGradient id="SVGID_1_" gradientUnits="userSpaceOnUse" x1="661.7833" y1="557.8982" x2="851.1613" y2="557.8982">
		<stop  offset="0" style="stop-color:#EC1C24"/>
		<stop  offset="1" style="stop-color:#BE1E2D"/>
	</linearGradient>
	<path style="fill:url(#SVGID_1_);" d="M661.783,579.97c0,0,47.345-70.776,100.456-44.909
		c53.111,25.865,68.813,34.951,88.922,31.045c0,0-38.292,40.175-106.087,7.533C720.593,527.814,671.002,569.872,661.783,579.97z"/>
	
		<linearGradient id="SVGID_00000071531646687702592760000006366343804103958673_" gradientUnits="userSpaceOnUse" x1="330.182" y1="557.8982" x2="519.5599" y2="557.8982">
		<stop  offset="0" style="stop-color:#EC1C24"/>
		<stop  offset="1" style="stop-color:#BE1E2D"/>
	</linearGradient>
	<path style="fill:url(#SVGID_00000071531646687702592760000006366343804103958673_);" d="M519.56,579.97
		c0,0-47.345-70.776-100.455-44.909c-53.111,25.865-68.813,34.951-88.922,31.045c0,0,38.292,40.175,106.087,7.533
		C460.75,527.814,510.341,569.872,519.56,579.97z"/>
	
		<linearGradient id="SVGID_00000118391886654669043680000014367206176574596998_" gradientUnits="userSpaceOnUse" x1="741.2394" y1="418.9838" x2="912.0742" y2="418.9838">
		<stop  offset="0" style="stop-color:#EC1C24"/>
		<stop  offset="1" style="stop-color:#BE1E2D"/>
	</linearGradient>
	<path style="fill:url(#SVGID_00000118391886654669043680000014367206176574596998_);" d="M792.782,434.91
		c-18.832,65.284-54.86,83.017-51.297,82.379c213.252-20.234,166.172-196.627,166.172-196.627S893.835,402.946,792.782,434.91z"/>
	
		<linearGradient id="SVGID_00000132774379123963277910000009788246906049543598_" gradientUnits="userSpaceOnUse" x1="269.269" y1="418.9838" x2="440.104" y2="418.9838">
		<stop  offset="0" style="stop-color:#EC1C24"/>
		<stop  offset="1" style="stop-color:#BE1E2D"/>
	</linearGradient>
	<path style="fill:url(#SVGID_00000132774379123963277910000009788246906049543598_);" d="M388.561,434.91
		c18.832,65.284,54.86,83.017,51.297,82.379c-213.252-20.234-166.172-196.627-166.172-196.627S287.508,402.946,388.561,434.91z"/>
	
		<linearGradient id="SVGID_00000068656183453492973520000014101079946433265544_" gradientUnits="userSpaceOnUse" x1="777.7509" y1="528.3173" x2="930.9225" y2="528.3173">
		<stop  offset="0" style="stop-color:#EC1C24"/>
		<stop  offset="1" style="stop-color:#BE1E2D"/>
	</linearGradient>
	<path style="fill:url(#SVGID_00000068656183453492973520000014101079946433265544_);" d="M834.513,509.178
		c-16.771,7.858-35.711,13.874-56.762,18.038c84.104,52.554,153.172-13.84,153.172-13.84
		C902.603,533.179,849.655,516.449,834.513,509.178z"/>
	
		<linearGradient id="SVGID_00000147218246715002358880000007539002777421089170_" gradientUnits="userSpaceOnUse" x1="261.7591" y1="528.3173" x2="403.5923" y2="528.3173">
		<stop  offset="0" style="stop-color:#EC1C24"/>
		<stop  offset="1" style="stop-color:#BE1E2D"/>
	</linearGradient>
	<path style="fill:url(#SVGID_00000147218246715002358880000007539002777421089170_);" d="M346.83,509.178
		c16.771,7.858,35.711,13.874,56.762,18.038c-84.104,52.554-141.833-13.84-141.833-13.84
		C290.079,533.179,331.688,516.449,346.83,509.178z"/>
	
		<linearGradient id="SVGID_00000052068285755614919680000009802694740820624774_" gradientUnits="userSpaceOnUse" x1="612.9859" y1="545.7913" x2="783.3664" y2="545.7913">
		<stop  offset="0" style="stop-color:#EC1C24"/>
		<stop  offset="1" style="stop-color:#BE1E2D"/>
	</linearGradient>
	<path style="fill:url(#SVGID_00000052068285755614919680000009802694740820624774_);" d="M783.366,387.83
		c0,0,0.831,90.756-86.144,141.963C610.25,581,617.14,689.998,613.07,703.753c0,0-5.589-172.177,74.202-217.15
		C687.272,486.603,767.987,442.285,783.366,387.83z"/>
	
		<linearGradient id="SVGID_00000175285770139589678370000013332691396822463384_" gradientUnits="userSpaceOnUse" x1="397.9768" y1="545.7913" x2="568.3572" y2="545.7913">
		<stop  offset="0" style="stop-color:#EC1C24"/>
		<stop  offset="1" style="stop-color:#BE1E2D"/>
	</linearGradient>
	<path style="fill:url(#SVGID_00000175285770139589678370000013332691396822463384_);" d="M397.977,387.83
		c0,0-0.831,90.756,86.144,141.963c86.972,51.207,80.083,160.205,84.152,173.96c0,0,5.589-172.177-74.202-217.15
		C494.071,486.603,413.357,442.285,397.977,387.83z"/>
	
		<linearGradient id="SVGID_00000165227464621726650080000006335314140520233145_" gradientUnits="userSpaceOnUse" x1="853.0283" y1="467.7835" x2="963.4588" y2="467.7835">
		<stop  offset="0" style="stop-color:#EC1C24"/>
		<stop  offset="1" style="stop-color:#BE1E2D"/>
	</linearGradient>
	<path style="fill:url(#SVGID_00000165227464621726650080000006335314140520233145_);" d="M898.525,457.072
		c-11.838,16.759-27.052,30.804-45.497,42.145c17.218,3.986,88.627,13.381,110.431-65.435
		C938.21,464.832,907.327,460.168,898.525,457.072z"/>
	
		<linearGradient id="SVGID_00000137104771052959423030000013765038793332781201_" gradientUnits="userSpaceOnUse" x1="224.2009" y1="467.7835" x2="328.3152" y2="467.7835">
		<stop  offset="0" style="stop-color:#EC1C24"/>
		<stop  offset="1" style="stop-color:#BE1E2D"/>
	</linearGradient>
	<path style="fill:url(#SVGID_00000137104771052959423030000013765038793332781201_);" d="M282.818,457.072
		c11.838,16.759,27.052,30.804,45.497,42.145c-17.219,3.986-82.311,13.381-104.114-65.435
		C249.449,464.832,274.016,460.168,282.818,457.072z"/>
	<g>
		
			<linearGradient id="SVGID_00000082326662825983034290000017283317373046778554_" gradientUnits="userSpaceOnUse" x1="521.4142" y1="546.5455" x2="589.8371" y2="546.5455">
			<stop  offset="0" style="stop-color:#EC1C24"/>
			<stop  offset="1" style="stop-color:#BE1E2D"/>
		</linearGradient>
		<path style="fill:url(#SVGID_00000082326662825983034290000017283317373046778554_);" d="M521.414,481.575
			c0,0,60.489,51.474,62.459,251.721l5.964-373.501C589.837,359.795,568.808,452.699,521.414,481.575z"/>
		
			<linearGradient id="SVGID_00000070100662338611616830000015219897037423786898_" gradientUnits="userSpaceOnUse" x1="589.8371" y1="546.5455" x2="658.26" y2="546.5455">
			<stop  offset="0" style="stop-color:#EC1C24"/>
			<stop  offset="1" style="stop-color:#BE1E2D"/>
		</linearGradient>
		<path style="fill:url(#SVGID_00000070100662338611616830000015219897037423786898_);" d="M589.837,359.795l5.963,373.501
			c0.54-189.262,62.46-251.721,62.46-251.721C610.866,452.699,589.837,359.795,589.837,359.795z"/>
	</g>
</g>
</svg>
